<svg width="50" height="50" viewBox="0 0 50 50" fill="none" xmlns="http://www.w3.org/2000/svg">
<path d="M47.0703 29.4237V29.414C46.9298 29.0199 46.7648 28.6351 46.5762 28.2616L38.4629 9.8007C38.3457 9.53486 38.1801 9.29312 37.9746 9.0878C37.3217 8.43465 36.5464 7.91653 35.6932 7.56303C34.84 7.20953 33.9255 7.02759 33.0019 7.02759C32.0784 7.02759 31.1639 7.20953 30.3107 7.56303C29.4575 7.91653 28.6822 8.43465 28.0293 9.0878C27.5908 9.52676 27.3443 10.1217 27.3437 10.7421V14.8437H22.6562V10.7421C22.6562 10.121 22.4096 9.52529 21.9707 9.08585C21.3178 8.4327 20.5425 7.91457 19.6893 7.56108C18.8361 7.20758 17.9216 7.02563 16.998 7.02563C16.0745 7.02563 15.16 7.20758 14.3068 7.56108C13.4535 7.91457 12.6783 8.4327 12.0254 9.08585C11.8198 9.29117 11.6543 9.5329 11.5371 9.79874L3.42382 28.2616C3.23523 28.6351 3.07019 29.0199 2.92968 29.414C2.92968 29.414 2.92968 29.414 2.92968 29.4237C2.43419 30.8186 2.24957 32.3048 2.38875 33.7785C2.52793 35.2521 2.98755 36.6775 3.73542 37.9549C4.48329 39.2323 5.50135 40.3308 6.7183 41.1734C7.93525 42.0161 9.32168 42.5825 10.7805 42.8331C12.2394 43.0837 13.7354 43.0124 15.1638 42.6242C16.5921 42.236 17.9184 41.5402 19.0497 40.5857C20.181 39.6311 21.0899 38.4408 21.7129 37.098C22.3359 35.7553 22.6579 34.2926 22.6562 32.8124V19.5312H27.3437V32.8124C27.3421 34.2926 27.6641 35.7553 28.2871 37.098C28.91 38.4408 29.819 39.6311 30.9503 40.5857C32.0816 41.5402 33.4078 42.236 34.8362 42.6242C36.2646 43.0124 37.7606 43.0837 39.2195 42.8331C40.6783 42.5825 42.0647 42.0161 43.2817 41.1734C44.4986 40.3308 45.5167 39.2323 46.2646 37.9549C47.0124 36.6775 47.4721 35.2521 47.6112 33.7785C47.7504 32.3048 47.5658 30.8186 47.0703 29.4237ZM15.625 12.164C15.9599 11.9209 16.3531 11.7708 16.7648 11.729C17.1764 11.6871 17.5918 11.755 17.9687 11.9257V24.2597C15.8908 22.9262 13.3975 22.397 10.957 22.7714L15.625 12.164ZM12.5 38.2812C11.4184 38.2812 10.3611 37.9604 9.46172 37.3595C8.56239 36.7586 7.86145 35.9045 7.44753 34.9052C7.03361 33.9059 6.92531 32.8063 7.13633 31.7455C7.34734 30.6847 7.86819 29.7102 8.633 28.9454C9.39782 28.1806 10.3723 27.6598 11.4331 27.4487C12.4939 27.2377 13.5935 27.346 14.5928 27.7599C15.5921 28.1739 16.4462 28.8748 17.0471 29.7741C17.648 30.6735 17.9687 31.7308 17.9687 32.8124C17.9687 34.2628 17.3926 35.6538 16.367 36.6794C15.3414 37.705 13.9504 38.2812 12.5 38.2812ZM32.0312 11.9257C32.4084 11.7562 32.8236 11.6889 33.235 11.7308C33.6465 11.7726 34.0396 11.922 34.375 12.164L39.0371 22.7714C36.5966 22.397 34.1034 22.9262 32.0254 24.2597L32.0312 11.9257ZM37.5 38.2812C36.4184 38.2812 35.3611 37.9604 34.4617 37.3595C33.5624 36.7586 32.8614 35.9045 32.4475 34.9052C32.0336 33.9059 31.9253 32.8063 32.1363 31.7455C32.3473 30.6847 32.8682 29.7102 33.633 28.9454C34.3978 28.1806 35.3723 27.6598 36.4331 27.4487C37.4939 27.2377 38.5935 27.346 39.5928 27.7599C40.5921 28.1739 41.4462 28.8748 42.0471 29.7741C42.648 30.6735 42.9687 31.7308 42.9687 32.8124C42.9687 34.2628 42.3926 35.6538 41.367 36.6794C40.3414 37.705 38.9504 38.2812 37.5 38.2812Z" fill="white"/>
</svg>
